<svg xmlns="http://www.w3.org/2000/svg" width="408" height="16" viewBox="0 0 408 16" fill="none">
<g clip-path="url(#clip0_1_26)">
<path fill-rule="evenodd" clip-rule="evenodd" d="M272.516 5.9804C317.43 6.85415 362.495 8.92827 405.861 13.965C406.635 14.0546 406.953 14.2005 407.015 14.2336C407.382 14.4298 407.417 14.6293 407.366 14.7916C407.335 14.8902 407.133 15.3046 406.092 15.3216C405.371 15.3327 400.273 14.9998 398.304 14.8977C389.04 14.4179 379.797 13.8334 370.56 13.1942C349.616 11.7484 328.697 10.4272 307.716 9.17565C295.936 8.47241 284.15 7.83909 272.37 7.26671C244.007 6.71741 215.703 6.64746 187.927 6.61183C198.952 7.22713 209.081 7.82448 217.482 8.25801C231.648 8.98859 245.786 9.78629 259.919 10.724C267.18 11.2048 274.431 11.711 281.675 12.2755C282.478 12.339 284.307 12.4294 285.192 12.5043C285.568 12.5348 285.839 12.5755 285.961 12.6019C286.723 12.7684 286.811 13.0721 286.817 13.2241C286.819 13.3165 286.743 13.8182 285.448 13.8837C225.231 16.9738 162.67 10.04 102.241 12.9962C101.532 13.0309 100.876 12.7713 100.779 12.4161C100.682 12.0619 101.18 11.7449 101.89 11.7102C158.805 8.92605 217.611 14.9159 274.575 13.0398C269.611 12.6752 264.644 12.334 259.672 12.0043C245.565 11.0684 231.452 10.2726 217.31 9.54253C203.078 8.80918 183.846 7.59227 163.706 6.62363C146.4 6.66699 129.101 6.76896 111.793 6.7889C104.491 6.79669 97.1877 6.77173 89.888 6.78308C86.8871 6.78699 79.1633 6.92555 78.0483 6.77359C77.1809 6.65478 76.9798 6.34007 76.9319 6.18346C76.8827 6.01394 76.9207 5.80573 77.3209 5.61599C77.4447 5.55601 77.8148 5.43446 78.5695 5.34596C98.9836 2.96322 132.287 3.84731 163.462 5.33213C170.175 5.31421 176.89 5.30565 183.606 5.31465C198.979 5.33366 214.523 5.35575 230.154 5.45834C186.139 3.80914 142.086 2.8554 98.015 2.13724C79.5108 1.83611 29.6197 1.5732 9.95767 1.9557C10.1942 2.08436 10.3308 2.25839 10.3096 2.44365C10.2675 2.79781 9.65181 3.05808 8.93549 3.02368C4.88638 2.82826 2.54643 2.65016 1.62133 2.50417C1.04513 2.41371 0.733393 2.28434 0.589719 2.20126C0.237459 2.00076 0.176953 1.79357 0.25245 1.60034C0.300257 1.48002 0.414078 1.34967 0.671027 1.23345C0.842385 1.15363 1.25933 1.0356 1.96656 0.965768C9.71104 0.20609 75.9689 0.487284 98.0009 0.845692C156.223 1.7951 214.41 3.15497 272.516 5.9804ZM94.3212 5.48781C105.715 5.00699 119.057 5.07296 132.966 5.4407C125.875 5.46666 118.782 5.4879 111.687 5.49622C105.9 5.50358 100.111 5.48869 94.3212 5.48781ZM326.119 8.99749C341.028 9.91972 355.92 10.8859 370.821 11.9154C372.541 12.0335 374.26 12.1504 375.98 12.2662C359.509 10.8465 342.856 9.7881 326.119 8.99749Z" fill="#686764"/>
</g>
<defs>
<clipPath id="clip0_1_26">
<rect width="408" height="16" fill="white"/>
</clipPath>
</defs>
</svg>